<?xml version="1.0" encoding="UTF-8"?>
<!DOCTYPE svg PUBLIC "-//W3C//DTD SVG 1.1//EN" "http://www.w3.org/Graphics/SVG/1.1/DTD/svg11.dtd">
<!-- Creator: CorelDRAW 2020 (64-Bit) -->
<svg xmlns="http://www.w3.org/2000/svg" xml:space="preserve" width="65.0238mm" height="65.0238mm" version="1.1" style="shape-rendering:geometricPrecision; text-rendering:geometricPrecision; image-rendering:optimizeQuality; fill-rule:evenodd; clip-rule:evenodd"
viewBox="0 0 6502.38 6502.38"
 xmlns:xlink="http://www.w3.org/1999/xlink"
 xmlns:xodm="http://www.corel.com/coreldraw/odm/2003">
 <defs>
  <style type="text/css">
   <![CDATA[
    .fil0 {fill:#FEFEFE}
    .fil1 {fill:#1F1B20}
   ]]>
  </style>
 </defs>
 <g id="Layer_x0020_1">
  <metadata id="CorelCorpID_0Corel-Layer"/>
  <circle class="fil0" cx="3251.2" cy="3251.2" r="3251.18"/>
  <g id="_2194245668656">
   <path class="fil1" d="M1465.35 3424.52c0,-710.89 433.86,-1327.95 1155.2,-1602 0,0 54.83,-390.81 133.96,-507.43 0,0 49.86,77.43 91.03,138.96 49.09,73.36 114.06,113.16 114.06,113.16 155.42,-21.22 779.16,0.66 895.3,52.14 0,0 234.81,-163.61 285.74,-303.46 0,0 368.8,1305.15 -889.45,1322.76l0 348.51c1675.1,16.29 1369.62,-1880.8 996.4,-2004.62 -218.13,-72.36 -478.37,206.2 -478.37,206.2 -158.52,-37.03 -473.45,-22.56 -643.29,-22.56 0,0 -269.7,-324.99 -447.9,-282.14 -289.83,69.67 -381.99,673.61 -381.99,673.61 -727.68,347.81 -1206.13,1042.97 -1206.13,1903.31 0,1193.64 967.64,2161.28 2161.28,2161.28 1193.65,0 2161.28,-967.64 2161.28,-2161.28l-375.8 0c0,932.92 -799.19,1749.4 -1785.48,1749.4 -986.29,0 -1785.84,-799.54 -1785.84,-1785.84z"/>
   <path class="fil1" d="M4348.15 3460.96c0,605.83 -491.13,1096.96 -1096.96,1096.96l0 384.4c818.13,0 1481.36,-663.23 1481.36,-1481.36l-384.4 0z"/>
   <path class="fil1" d="M3251.19 4291.97c458.96,0 831.01,-372.06 831.01,-831.01l-405.21 0c0,235.16 -190.63,425.8 -425.8,425.8l0 405.21z"/>
  </g>
 </g>
</svg>
